<svg width="292" height="460" viewBox="0 0 292 460" fill="none" xmlns="http://www.w3.org/2000/svg">
<path d="M2 118.464V15.1783C2 8.34276 9.32003 4.00232 15.3176 7.28157L267.442 145.134C273.259 148.314 273.757 156.479 268.37 160.343L192.435 214.819C189.709 216.774 186.123 217.051 183.129 215.538L6.94057 126.497C3.9105 124.966 2 121.859 2 118.464Z" fill="#FF725B"/>
<path d="M25.4976 431.978L281.714 170.497C285.476 166.658 292 169.321 292 174.696V306.314C292 308.575 290.729 310.644 288.713 311.666L32.4958 441.53C26.4391 444.599 20.7453 436.828 25.4976 431.978Z" fill="#FFC4BA"/>
<path d="M104.911 193.55L10.6029 148.142C6.61934 146.224 2 149.127 2 153.548V429.487C2 436.067 11.0619 437.849 13.5533 431.759L107.861 201.228C109.063 198.291 107.77 194.926 104.911 193.55Z" fill="#FF8E7B"/>
</svg>
