<svg width="180" height="141" viewBox="0 0 180 141" fill="none" xmlns="http://www.w3.org/2000/svg">
<path d="M43.2164 29.1354C41.7932 29.1354 40.3423 29.2204 38.9987 29.5571C38.2119 29.7569 37.4358 30.0936 36.6787 30.4007C36.3858 30.5201 36.1226 30.6868 35.8351 30.8224C35.7157 30.8778 35.7433 30.9749 35.6246 31.033C34.9106 31.3866 34.1885 31.643 33.5157 32.0877C33.4213 32.1491 33.1878 32.2355 33.094 32.299C32.8962 32.4339 32.8659 32.577 32.6722 32.7201C32.1215 33.1155 31.502 33.5366 30.9851 33.986C30.5134 34.4098 30.1611 34.9915 29.7198 35.4619C28.2271 36.9931 26.7667 38.6242 25.7127 40.5231C23.9028 43.6969 22.6975 47.1736 22.128 50.8568C21.8533 50.7988 21.5253 50.7772 21.2844 50.8568C19.4401 51.4561 19.0291 54.9679 20.2303 58.6592C20.9349 60.8254 21.9869 62.5462 23.182 63.5112C24.7881 69.7534 28.2412 75.0104 32.6722 78.2698V81.8532L29.0868 85.2273L22.128 88.8174C16.4486 91.6315 10.7193 94.4388 5.04663 97.2528C1.9026 99.1491 0.739795 102.827 1.03949 106.323C1.1858 108.516 0.331388 111.391 2.51568 112.855C4.59079 113.921 7.22188 113.314 9.47454 113.489H21.7058C22.932 111.883 24.4646 110.398 26.3453 109.272L26.5559 109.062H26.7671C36.2889 104.386 45.69 99.6147 55.2362 94.9314L66.2022 89.6609C65.5807 89.3505 64.9254 89.1211 64.3046 88.8174L57.3457 85.2273L53.7603 81.8532V78.2698C56.5642 76.2116 58.9342 73.2288 60.7199 69.8344C58.3141 65.9474 56.4623 61.48 55.2362 56.7629C53.1989 54.671 51.2891 52.3482 50.1749 48.9585C49.0284 45.469 48.7011 41.8633 49.1209 38.836C49.4927 36.1543 50.7809 33.6156 53.3386 32.299C52.5854 31.8097 51.6056 31.4284 50.8079 31.033C50.4057 30.8359 50.1668 30.568 49.7538 30.4007C49.4603 30.2812 49.2086 30.2934 48.9103 30.1894C48.0135 29.879 47.1011 29.5052 46.1685 29.3459C46.0969 29.3351 46.0295 29.358 45.9572 29.3459C45.082 29.2082 44.1133 29.1252 43.2164 29.1354Z" fill="#FFAC9E"/>
<path d="M140.003 30.0008C141.334 30.0008 142.691 30.0859 143.948 30.4226C144.684 30.6224 145.41 30.9591 146.118 31.2661C146.392 31.3856 146.638 31.5523 146.907 31.6879C147.019 31.7432 146.993 31.8404 147.104 31.8985C147.772 32.2521 148.447 32.5085 149.077 32.9532C149.165 33.0146 149.383 33.101 149.471 33.1644C149.656 33.2994 149.684 33.4425 149.866 33.5855C150.381 33.981 150.96 34.4021 151.444 34.8515C151.885 35.2753 152.214 35.857 152.627 36.3274C154.023 37.8586 155.389 39.4896 156.375 41.3886C158.068 44.5623 159.195 48.0391 159.728 51.7223C159.985 51.6643 160.292 51.6427 160.517 51.7223C162.242 52.3215 162.627 55.8334 161.503 59.5247C160.844 61.6909 159.86 63.4117 158.742 64.3767C157.24 70.6189 154.01 75.8758 149.866 79.1353V82.7186L153.219 86.0928L159.728 89.6829C165.04 92.4969 170.399 95.3042 175.705 98.1183C178.646 100.015 179.734 103.692 179.453 107.188C179.316 109.381 180.116 112.256 178.072 113.72C176.132 114.787 173.671 114.179 171.564 114.355H160.123C158.976 112.749 157.543 111.264 155.783 110.137L155.587 109.928H155.389C146.483 105.251 137.689 100.48 128.76 95.7969L118.503 90.5264C119.085 90.216 119.698 89.9866 120.278 89.6829L126.787 86.0928L130.141 82.7186V79.1353C127.518 77.077 125.301 74.0943 123.631 70.6999C125.882 66.8129 127.614 62.3455 128.76 57.6284C130.666 55.5364 132.452 53.2137 133.494 49.824C134.567 46.3344 134.873 42.7288 134.48 39.7015C134.133 37.0197 132.928 34.481 130.535 33.1644C131.24 32.6752 132.156 32.2939 132.902 31.8985C133.279 31.7014 133.502 31.4335 133.888 31.2661C134.163 31.1467 134.398 31.1588 134.677 31.0549C135.516 30.7445 136.37 30.3706 137.242 30.2114C137.309 30.2006 137.372 30.2235 137.439 30.2114C138.258 30.0737 139.164 29.9907 140.003 30.0008Z" fill="#FFAC9E"/>
<path d="M92.1349 0.11731C89.746 0.11731 87.3909 0.117145 85.1302 0.791976C83.8143 0.791976 82.5321 1.4673 81.2634 2.14213C80.7708 2.14213 80.2714 2.14197 79.7855 2.8168H79.2322C78.0377 3.49163 76.8635 4.16679 75.7298 4.84162H75.1764C74.8458 5.51645 74.5826 5.51612 74.2587 6.19095C73.3342 6.86578 72.3624 6.86611 71.4919 8.21578C70.7023 8.89061 70.0207 9.56494 69.2784 10.2398C66.7741 12.9391 64.6005 15.6388 62.8304 19.0129C59.7903 23.7367 57.5208 29.8102 56.5633 35.8837H55.273C52.1755 37.2333 51.4129 42.6322 53.43 48.7056C54.6137 52.7546 56.5835 55.4536 58.5911 56.8033C61.2877 67.6006 67.0002 76.373 74.4409 81.7717V87.8453L68.5429 93.2443L56.7475 99.318C47.2087 104.042 37.7064 108.765 28.1785 113.489C22.898 116.189 20.8552 122.937 21.3587 128.335C21.6043 132.384 20.2702 137.108 23.9385 139.132C27.424 141.157 31.5824 139.808 35.3668 139.808H68.5429H115.727C129.689 139.808 143.611 140.483 157.573 139.808C162.101 139.808 163.357 135.084 162.918 131.035C162.999 125.636 163.323 119.562 159.044 115.513C155.556 112.139 150.589 110.79 146.331 108.09C140.075 105.391 133.779 102.017 127.53 99.318L115.727 93.2443L109.829 87.8453V81.7717C117.272 76.373 122.988 67.6006 125.681 56.8033C127.692 55.4536 129.662 52.7546 130.843 48.7056C132.861 42.6322 132.098 37.2333 129.001 35.8837H127.712C126.754 29.8102 124.486 23.7367 121.443 19.0129C119.675 15.6388 117.502 12.9391 114.991 10.2398C114.249 9.56494 113.574 8.89061 112.778 8.21578H112.596C110.288 6.19128 107.717 4.16646 105.038 2.8168C104.363 2.8168 103.708 2.14213 103.013 2.14213C102.521 2.14213 102.041 1.46747 101.535 1.46747C100.03 0.792635 98.4986 0.792141 96.9262 0.11731H96.5618H92.1349Z" fill="#FF725B"/>
</svg>
