<svg width="129" height="129" viewBox="0 0 129 129" fill="none" xmlns="http://www.w3.org/2000/svg">
<path d="M63.5999 73.4C83.8688 73.4 100.3 56.9688 100.3 36.7C100.3 16.4312 83.8688 0 63.5999 0C43.3311 0 26.8999 16.4312 26.8999 36.7C26.8999 56.9688 43.3311 73.4 63.5999 73.4Z" fill="#FF826D"/>
<path d="M94.1998 104.1C112.922 104.1 128.1 88.9224 128.1 70.2C128.1 51.4775 112.922 36.3 94.1998 36.3C75.4774 36.3 60.2998 51.4775 60.2998 70.2C60.2998 88.9224 75.4774 104.1 94.1998 104.1Z" fill="#FFA091"/>
<path d="M68.3999 128.3C82.7593 128.3 94.3999 116.659 94.3999 102.3C94.3999 87.9406 82.7593 76.3 68.3999 76.3C54.0405 76.3 42.3999 87.9406 42.3999 102.3C42.3999 116.659 54.0405 128.3 68.3999 128.3Z" fill="#FFBBB0"/>
<path d="M59.4 97.4H6.4C2.9 97.4 0 94.5 0 91V38.8C0 35.3 2.9 32.4 6.4 32.4H59.4C62.9 32.4 65.8 35.3 65.8 38.8V91C65.8 94.5 63 97.4 59.4 97.4Z" fill="#FF725B"/>
<path d="M22.2002 76.1C24.3002 77.3 27.6002 78.4 31.0002 78.4C35.2002 78.4 37.6002 76.4 37.6002 73.5C37.6002 70.8 35.8002 69.2 31.2002 67.5C25.2002 65.4 21.3002 62.2 21.3002 57.1C21.3002 51.2 26.3002 46.8 34.2002 46.8C38.1002 46.8 41.0002 47.7 42.9002 48.6L41.3002 53.9C40.0002 53.2 37.5002 52.2 34.1002 52.2C29.9002 52.2 28.1002 54.4 28.1002 56.5C28.1002 59.3 30.2002 60.5 35.1002 62.4C41.4002 64.8 44.4002 67.9 44.4002 73C44.4002 78.8 40.0002 83.7 30.6002 83.7C26.7002 83.7 22.7002 82.6 20.7002 81.5L22.2002 76.1Z" fill="white"/>
<path opacity="0.2" d="M65.8 38.2C65.8 38.4 65.8 38.6 65.8 38.8V91C65.8 94.5 62.9 97.4 59.4 97.4H42.7L42.5 103.1H64.9C68.4 103.1 71.3 100.2 71.3 96.7V44.5C71.2 41.3 68.9 38.7 65.8 38.2Z" fill="black"/>
</svg>
