<svg width="130" height="132" viewBox="0 0 130 132" fill="none" xmlns="http://www.w3.org/2000/svg">
<rect y="2" width="130" height="130" rx="65" fill="#FA5566"/>
<rect width="130" height="130" rx="65" fill="#EFEFEF"/>
<path d="M64.4874 34.0001C63.8664 34.006 63.3674 34.5147 63.3734 35.136V41.8882C63.3394 43.4219 65.6574 43.4219 65.6234 41.8882V35.136C65.6276 34.5061 65.117 33.9939 64.4874 34.0001ZM79.7145 38.0628C79.6719 38.0619 79.6309 38.0637 79.5892 38.0671C79.2189 38.1006 78.891 38.3155 78.7103 38.6405L75.3397 44.4875C74.5441 45.8012 76.5577 46.9577 77.2909 45.6081L80.6593 39.7699C81.1084 39.0269 80.5823 38.0766 79.7145 38.0628ZM49.2801 38.0671C48.4255 38.0989 47.9174 39.036 48.3573 39.7699L51.7279 45.6081C52.487 46.8617 54.3788 45.7753 53.6791 44.4875L50.2997 38.6406C50.0939 38.2739 49.7003 38.0526 49.2801 38.0671ZM64.527 44.1381C54.5968 44.1381 46.4962 52.2808 46.4962 62.2853C46.4962 66.9594 49.0209 71.3607 51.4115 75.247C53.8021 79.1333 55.9928 81.2499 55.9928 82.3705C55.9903 83.0173 56.5241 83.5023 57.1485 83.4999H71.9076C72.51 83.5022 73.0174 82.9953 73.015 82.3705C73.015 81.2499 75.1319 79.2035 77.6095 75.2426C80.0291 71.3743 82.5006 66.9594 82.5006 62.2853C82.5006 52.2808 74.4571 44.1381 64.527 44.1381ZM38.1642 49.1786C37.035 49.2399 36.6584 50.7063 37.6742 51.3012L43.5013 54.6652C44.7411 55.3771 45.9512 53.5138 44.6395 52.736L38.8123 49.3368C38.6172 49.2198 38.391 49.1646 38.1642 49.1786ZM90.6612 49.1786C90.5145 49.1965 90.364 49.2467 90.2174 49.3369L84.3749 52.7097C83.075 53.4583 84.1954 55.4095 85.4955 54.6608L91.3468 51.288C92.5754 50.5304 91.6887 49.0532 90.6612 49.1786ZM62.2506 49.7499H66.7528C67.3749 49.7476 67.8809 50.2506 67.8822 50.8727L67.8844 53.1799C68.0562 53.2461 68.268 53.3389 68.4359 53.415L70.0729 51.7846C70.5206 51.3396 71.2205 51.3483 71.6593 51.7846L74.8388 54.9574C75.2809 55.3973 75.2809 56.1128 74.8388 56.5526L73.2106 58.1852C73.285 58.3522 73.3745 58.5657 73.4391 58.7367H75.7528C76.3741 58.7392 76.8758 59.2448 76.8734 59.8661V64.3573C76.8722 64.9761 76.3715 65.4777 75.7528 65.4801H73.4435C73.3789 65.6512 73.2894 65.8668 73.215 66.0339L74.8476 67.6774C75.2885 68.117 75.2816 68.8264 74.8408 69.266L71.6613 72.4389C71.2225 72.8751 70.5137 72.8751 70.0749 72.4389L68.4426 70.8107C68.2748 70.8868 68.0541 70.973 67.8823 71.0392V73.3441C67.8846 73.9689 67.3776 74.4759 66.7529 74.4735H62.2507C61.6294 74.4711 61.1277 73.9654 61.1301 73.3441V71.0348C60.9589 70.97 60.7391 70.8809 60.572 70.8063L58.9372 72.4389C58.4976 72.8795 57.7838 72.8795 57.3442 72.4389L54.1626 69.266C53.7219 68.8264 53.7219 68.1126 54.1626 67.673L55.7995 66.0382C55.7234 65.8707 55.6285 65.6518 55.5622 65.4801H53.2573C52.6351 65.4825 52.1291 64.9795 52.1279 64.3573V59.8661C52.1255 59.2414 52.6325 58.7344 53.2573 58.7367H55.5666C55.6329 58.5662 55.7194 58.3517 55.7951 58.1852L54.1625 56.5526C53.7205 56.1128 53.7205 55.3973 54.1625 54.9574L57.3442 51.7846C57.7837 51.3439 58.4976 51.3439 58.9372 51.7846L60.5764 53.415C60.7431 53.3405 60.9591 53.249 61.1301 53.1842V50.8727C61.1313 50.254 61.6319 49.7524 62.2506 49.7499ZM63.3822 52.0021V54.0016C63.38 54.5078 63.0401 54.9502 62.5516 55.0827C61.9756 55.2408 61.4263 55.471 60.9059 55.7638C60.4652 56.0152 59.9108 55.9405 59.5523 55.5815L58.1417 54.1686L56.5553 55.7551L57.9659 57.1745C58.3248 57.5329 58.3996 58.0873 58.1483 58.528C57.8513 59.046 57.6225 59.5994 57.4605 60.1738C57.3215 60.6553 56.8807 60.9868 56.3795 60.9868H54.3778V63.228H56.3795C56.8838 63.2293 57.3257 63.566 57.4605 64.0519C57.6227 64.6263 57.8515 65.1775 58.1483 65.6955C58.3996 66.1362 58.3248 66.6906 57.9659 67.049L56.5553 68.4684L58.1417 70.0549L59.5523 68.6442C59.9087 68.2823 60.4633 68.204 60.9059 68.4531C61.4262 68.7459 61.9756 68.9761 62.5516 69.1342C63.0425 69.2674 63.3829 69.7133 63.3822 70.2219V72.2236H65.6322V70.2306C65.6332 69.727 65.9689 69.2854 66.454 69.1496C67.0298 68.9877 67.5783 68.7585 68.0975 68.4618C68.5363 68.2083 69.0905 68.2793 69.451 68.6354L70.8727 70.0548L72.4591 68.4684L71.0462 67.0578C70.6916 66.7008 70.6173 66.1516 70.8639 65.713C71.1572 65.1927 71.3869 64.6343 71.545 64.0585C71.6774 63.5708 72.1185 63.2311 72.6239 63.2279H74.6344V60.9867H72.6239C72.121 60.9847 71.6807 60.6492 71.545 60.1649C71.387 59.5892 71.1572 59.0329 70.8639 58.5126C70.616 58.0735 70.6904 57.5231 71.0462 57.1657L72.4591 55.755L70.8727 54.1686L69.451 55.5815C69.0925 55.9404 68.5382 56.0152 68.0975 55.7638C67.5783 55.4672 67.0298 55.2357 66.4539 55.0739C65.9698 54.9383 65.6342 54.4979 65.6322 53.995V52.0021L63.3822 52.0021ZM64.5028 57.6161C66.9746 57.6161 69.0028 59.6444 69.0028 62.1161C69.0028 64.5879 66.9746 66.6183 64.5028 66.6183C62.0309 66.6183 60.0006 64.5879 60.0006 62.1161C60.0006 59.6444 62.0309 57.6161 64.5028 57.6161ZM64.5028 59.8661C63.2467 59.8661 62.2506 60.8606 62.2506 62.1161C62.2506 63.3716 63.2467 64.3661 64.5028 64.3661C65.7589 64.3661 66.7528 63.3716 66.7528 62.1161C66.7528 60.8606 65.7589 59.8661 64.5028 59.8661ZM34.0728 64.3617C32.5725 64.4339 32.6802 66.6861 34.1805 66.6139H40.9305C42.3877 66.6143 42.3437 64.3621 40.9305 64.3617H34.1805C34.1465 64.3601 34.1086 64.3601 34.0728 64.3617ZM88.0113 64.3617C86.6183 64.5019 86.639 66.5575 88.1256 66.6139H94.8756C96.3767 66.6144 96.3767 64.3622 94.8756 64.3617H88.1256C88.0873 64.3598 88.0496 64.3598 88.0113 64.3617ZM84.878 76.1479C83.7499 76.2111 83.4088 77.7128 84.399 78.2573L90.235 81.6366C91.6331 82.3825 92.5888 80.3686 91.371 79.6855L85.5218 76.3039C85.3603 76.2083 85.1774 76.1547 84.9901 76.1479C84.9518 76.146 84.9155 76.146 84.878 76.1479ZM43.9518 76.1611C43.8076 76.1759 43.6584 76.2205 43.5101 76.2995L37.6808 79.6635C36.3317 80.4542 37.4328 82.3676 38.8123 81.6279L44.6571 78.2573C45.7496 77.3912 44.9607 76.0575 43.9518 76.1611ZM57.7352 85.7499C56.269 85.7827 56.269 87.9673 57.7352 87.9999H71.233C72.7429 87.9663 72.749 85.7837 71.233 85.7499H57.7352ZM58.7679 90.2499C57.3686 90.4419 57.4059 92.4291 58.8756 92.5021H70.1212C71.6219 92.5021 71.6219 90.2499 70.1212 90.2499H58.8756C58.8416 90.2482 58.8036 90.2482 58.7679 90.2499ZM61.1058 94.7499C59.6394 94.7822 59.6394 96.9674 61.1058 96.9999H67.8778C69.3442 96.9676 69.3442 94.7825 67.8778 94.7499H61.1058Z" fill="#FA5464"/>
</svg>
