<svg width="130" height="132" viewBox="0 0 130 132" fill="none" xmlns="http://www.w3.org/2000/svg">
<rect y="2" width="130" height="130" rx="65" fill="#FA5566"/>
<rect width="130" height="130" rx="65" fill="#EFEFEF"/>
<path d="M69.7639 45.9051C69.7639 45.9051 75.6104 47.0883 79.1831 51.1983C82.7577 55.3083 82.6374 55.6879 84.0656 59.6669C84.5422 60.965 85.4947 60.8474 85.8528 60.7868C86.2092 60.7289 87.2819 60.1917 86.6565 58.3465C86.0319 56.4986 83.27 46.5529 70.9222 43.3356C69.6516 43.095 69.1821 43.5147 68.9816 44.0956C68.7812 44.6765 68.9291 45.6922 69.7639 45.9051Z" fill="#FA5464"/>
<path d="M59.2666 45.9051C59.2666 45.9051 53.421 47.0883 49.8474 51.1983C46.2738 55.3083 46.394 55.6879 44.9649 59.6669C44.4874 60.965 43.5358 60.8474 43.1777 60.7868C42.8204 60.7289 41.7468 60.1917 42.3723 58.3465C42.9977 56.4986 45.7588 46.5529 58.1075 43.3356C59.378 43.095 59.8466 43.5147 60.048 44.0956C60.2493 44.6765 60.1023 45.6922 59.2666 45.9051Z" fill="#FA5464"/>
<path d="M59.2933 85.0289C59.2933 85.0289 53.4424 83.8697 49.8509 79.7749C46.2604 75.6791 46.3798 75.2996 44.9329 71.3268C44.45 70.0313 43.4993 70.1552 43.142 70.2158C42.7847 70.2746 41.7129 70.8163 42.3464 72.6588C42.9799 74.504 45.7828 84.4382 58.1458 87.6037C59.4163 87.8363 59.8823 87.4166 60.0818 86.8366C60.2796 86.2522 60.129 85.2356 59.2933 85.0289Z" fill="#FA5464"/>
<path d="M69.7889 85.0993C69.7889 85.0993 75.6309 83.8903 79.1876 79.7669C82.7443 75.64 82.6213 75.2596 84.0335 71.277C84.5048 69.9753 85.4573 70.0902 85.8172 70.1481C86.1754 70.2069 87.249 70.737 86.6316 72.5885C86.0123 74.4363 83.294 84.3928 70.9596 87.6617C69.6909 87.9049 69.2195 87.4915 69.0155 86.9106C68.8115 86.3297 68.9549 85.314 69.7889 85.0993Z" fill="#FA5464"/>
<path d="M77.1417 67.3255H67.5835C67.1871 67.3371 65.6172 67.5037 65.6172 69.4754V78.834C65.6172 78.834 65.6591 80.1473 66.9349 79.8844C72.6691 78.9204 77.2487 74.6189 78.643 69.045C78.9834 67.2613 77.1417 67.3255 77.1417 67.3255Z" fill="#FA5464"/>
<path d="M91.5718 63.6628H81.5886C79.208 63.6628 79.0725 64.944 79.0912 65.3601C79.0912 65.4073 79.1002 65.4528 79.1002 65.4991C79.1002 65.4991 78.9523 67.3256 80.785 67.3256H91.5718C92.3621 67.3256 93.0009 66.6832 93.0009 65.8965V65.0928C93 64.3017 92.3612 63.6628 91.5718 63.6628Z" fill="#FA5464"/>
<path d="M64.2282 80.085C64.0786 80.0761 63.928 80.0681 63.7783 80.0601L63.7854 80.0788C63.7854 80.0788 61.9536 79.8168 61.9536 82.3855V92.5709C61.9536 93.3612 62.5942 94 63.3827 94H64.1872C64.9749 94 65.6163 93.3603 65.6163 92.5709V82.8764C65.6172 80.7408 64.7717 80.2071 64.2282 80.085Z" fill="#FA5464"/>
<path d="M59.8098 67.3256H51.5587C51.0366 67.3621 50.1153 67.641 50.3612 68.9952C51.5979 74.006 55.4005 77.9966 60.3186 79.4649C60.8897 79.5879 61.9535 79.6217 61.9535 78.1641V69.2073C61.9535 67.2418 59.8098 67.3256 59.8098 67.3256Z" fill="#FA5464"/>
<path d="M49.9034 65.4385C49.8892 65.0028 49.6914 63.6628 47.7259 63.6628H37.4291C36.6388 63.6628 36 64.3026 36 65.0919V65.8956C36 66.6832 36.6397 67.3247 37.4291 67.3247H47.9495C49.8553 67.3247 49.9203 65.9428 49.9052 65.5855C49.9052 65.5579 49.8999 65.5303 49.8999 65.4982C49.899 65.4804 49.9034 65.4599 49.9034 65.4385Z" fill="#FA5464"/>
<path d="M78.5692 61.692C77.1686 56.5013 72.9882 52.4643 67.7173 51.2776C65.5647 50.7671 65.6173 52.9027 65.6173 52.9027V61.7472C65.6173 61.7472 65.5736 63.6628 67.5614 63.6628H76.9423C76.9423 63.6628 79.0708 63.6646 78.5692 61.692Z" fill="#FA5464"/>
<path d="M59.885 51.6652C55.3901 53.162 51.8708 56.7775 50.5166 61.3365C50.5157 61.3419 49.9401 63.662 51.9474 63.662H59.6204C60.2815 63.6397 61.9547 63.3688 61.9547 61.1209V53.1691C61.9538 51.2242 60.1167 51.6064 59.885 51.6652Z" fill="#FA5464"/>
<path d="M64.1873 37H63.3828C62.5943 37 61.9537 37.6397 61.9537 38.4291V48.8373C61.9537 48.8373 61.9065 51.0264 63.8951 50.9141C63.9548 50.9114 63.986 50.9203 64.0394 50.9203C64.051 50.9203 64.0582 50.9203 64.0706 50.9203C64.1205 50.9203 64.1686 50.9141 64.2185 50.9141C64.7175 50.8722 65.6173 50.596 65.6173 49.1064V38.4291C65.6173 37.6388 64.9758 37 64.1873 37Z" fill="#FA5464"/>
</svg>
