<svg width="130" height="132" viewBox="0 0 130 132" fill="none" xmlns="http://www.w3.org/2000/svg">
<rect y="2" width="130" height="130" rx="65" fill="#FA5566"/>
<rect width="130" height="130" rx="65" fill="#EFEFEF"/>
<path d="M35.6011 85.6505C35.6475 86.4832 35.8038 87.3056 36.0663 88.097C36.4849 89.414 36.985 89.6379 38.2759 89.6435L39.4943 89.6484C43.2897 89.6639 47.2152 89.6788 51.0741 89.6742C51.4536 89.6664 51.8324 89.6379 52.2088 89.5874C52.6035 89.5318 53.0017 89.5039 53.4004 89.505C54.0249 89.5201 54.6629 89.5698 55.2797 89.6178C56.0326 89.6763 56.8092 89.7369 57.5799 89.7369C57.6294 89.7369 57.6787 89.7369 57.7278 89.7369C67.3674 89.6357 75.1638 89.5254 82.2632 89.3886C84.7433 89.3403 86.5452 88.3205 87.7723 86.2696C90.4631 81.7704 92.5523 76.6906 94.5462 69.7984C94.8444 68.6806 95.0735 67.5456 95.2328 66.3996C95.314 65.8876 95.3987 65.3584 95.4941 64.8426C95.4966 64.8286 95.498 64.8141 95.498 64.7997V63.156C95.498 63.1295 95.4938 63.1033 95.4849 63.0784C95.3753 62.7658 95.2789 62.4361 95.1852 62.1167C95.0015 61.3779 94.7253 60.6654 94.3628 59.9962C93.1957 58.0536 91.2291 56.9323 88.6753 56.7535C86.2683 56.585 83.8148 56.5403 81.4436 56.4966C80.8424 56.4856 80.2413 56.474 79.6405 56.4618C78.4329 56.436 77.2037 56.4425 76.016 56.4487C75.5581 56.4511 75.1006 56.4531 74.6428 56.4544C75.4127 54.4623 75.8922 52.2459 76.194 49.2855C76.3717 47.5435 76.4877 45.2575 75.7993 43.0261C75.3124 41.4485 74.5463 40.9221 72.8731 41.0091C71.7463 41.0413 70.6718 41.4929 69.86 42.2754C69.6724 42.4586 69.4836 42.6406 69.2939 42.8217C68.2972 43.7341 67.3695 44.7189 66.5182 45.7681C65.449 47.1568 64.4503 48.632 63.4843 50.059C63.0618 50.6831 62.6394 51.3074 62.21 51.9263C60.1961 54.8278 57.8086 56.9407 54.9078 58.3833C54.682 58.5061 54.4341 58.5829 54.1783 58.6091C53.9226 58.6352 53.6643 58.6103 53.4183 58.5358C51.2966 57.9913 49.4993 57.8592 47.7624 58.1193C46.4234 58.3201 45.0464 58.4442 43.7149 58.5637C43.2012 58.6095 42.6878 58.6564 42.175 58.707C41.6289 58.7606 41.0821 58.8085 40.5354 58.8564C39.6541 58.9333 38.7428 59.0129 37.8475 59.1176C36.2124 59.3088 35.5546 59.9257 35.2406 61.5626L35.2116 61.71C35.1502 61.9794 35.1126 62.2536 35.0996 62.5296C35.0886 63.1345 35.0732 63.7392 35.0578 64.3441C35.0171 65.9443 34.9747 67.5989 35.0186 69.2276C35.1761 75.0348 35.4016 80.7882 35.6011 85.6505ZM51.5925 60.5897C51.5424 64.8822 51.8458 69.1896 52.1399 73.3569C52.4329 77.5119 52.7349 81.806 52.6809 86.0443H39.2881L39.2853 86.0175C39.2668 85.8469 39.2476 85.6706 39.2396 85.4979C39.1023 82.2872 38.9649 79.0761 38.8276 75.8657C38.6978 72.8252 38.5681 69.7849 38.4386 66.7446C38.4262 66.4561 38.4148 66.1674 38.4043 65.8784C38.3679 64.9293 38.3306 63.9477 38.2425 62.9843C38.1807 62.3088 38.3841 62.04 39.0206 61.9571C39.7871 61.8572 40.5529 61.7543 41.318 61.6487C42.774 61.4501 44.2793 61.2452 45.7625 61.0749C47.1422 60.9167 48.552 60.8002 49.9154 60.6875C50.3965 60.648 50.8776 60.6076 51.3586 60.5665C51.4374 60.5647 51.516 60.5725 51.5929 60.5897H51.5925ZM73.4831 48.9597C73.3387 51.0157 72.8121 53.1978 71.8254 55.8267C71.5084 56.6718 71.258 57.6085 71.5708 58.7332C71.5839 58.7804 71.6116 58.8223 71.6495 58.8531C71.6878 58.884 71.7346 58.9021 71.7836 58.9052C71.9666 58.9161 72.1528 58.9294 72.3397 58.9427C72.7489 58.9718 73.172 59.002 73.5951 59.0113C74.7999 59.0343 76.005 59.0503 77.2108 59.0657C79.8721 59.0998 82.6239 59.1343 85.3245 59.2584C86.7786 59.3388 88.2128 59.6352 89.58 60.1379C91.2546 60.7435 92.0625 62.0232 91.9806 63.9406C91.8544 66.896 91.122 69.9724 89.6754 73.622C88.7178 76.0372 87.6365 78.5931 86.1679 81.9107C85.8292 82.6273 85.4426 83.32 85.0099 83.9845C84.8773 84.1985 84.745 84.4125 84.6152 84.6279C83.9662 85.7083 82.953 86.3196 81.6039 86.4448C79.7742 86.6143 77.6446 86.7966 75.533 86.8138C70.8431 86.8519 66.074 86.8459 61.4615 86.8396C60.008 86.8375 58.5546 86.8364 57.1009 86.8353C56.8437 86.8353 56.5794 86.8124 56.3457 86.7906L56.2491 86.7821L54.2123 60.7319C54.5544 60.5796 54.8931 60.4342 55.2277 60.2899C56.0655 59.9295 56.8567 59.5893 57.6306 59.1796C60.7351 57.5342 63.3433 54.9283 65.8396 50.9783C67.188 48.845 68.8693 46.3879 71.1129 44.3381C71.5392 43.9326 72.0372 43.6099 72.5816 43.3864C72.9752 43.2371 73.1408 43.2594 73.2103 43.3045C73.305 43.3654 73.365 43.5564 73.3845 43.8568C73.531 45.5537 73.5639 47.2585 73.4831 48.9597Z" fill="#FA5464"/>
<path d="M45.8251 61.4873C45.8126 61.4873 45.8 61.4882 45.7876 61.4899C43.0073 61.902 41.3139 63.4629 41.2564 65.667C41.2003 67.8422 42.9849 69.6039 45.3192 69.6781C45.3649 69.6797 45.4091 69.6804 45.4537 69.6804C46.544 69.6818 47.5937 69.2669 48.389 68.5206C48.754 68.1825 49.0477 67.7747 49.2531 67.3213C49.4584 66.8679 49.5712 66.3779 49.5848 65.8804C49.5727 64.6744 49.0915 63.5207 48.2434 62.6638C47.522 61.9164 46.663 61.4985 45.8251 61.4873ZM45.981 66.1451C45.6666 66.5064 45.2214 66.5433 44.658 66.255C44.1735 66.007 44.0099 65.6503 44.1712 65.1939C44.2681 64.9578 44.3896 64.7326 44.5337 64.5221C44.5873 64.436 44.6445 64.344 44.7051 64.2437C44.8111 64.3103 44.9137 64.3721 45.0123 64.4317C45.2994 64.5871 45.5664 64.777 45.8077 64.997C46.0402 65.2333 46.3719 65.6974 45.981 66.1451Z" fill="#FA5566"/>
</svg>
